{
  "accessors": [
    {
      "bufferView": 2,
      "componentType": 5126,
      "count": 756,
      "max": [
        -55.362201690673828,
        9.0030174255371094,
        4.796210765838623
      ],
      "min": [
        -70.897552490234375,
        -8.9523963928222656,
        -8.6620550155639648
      ],
      "type": "VEC3"
    },
    {
      "bufferView": 2,
      "byteOffset": 9072,
      "componentType": 5126,
      "count": 756,
      "max": [
        0.99621134996414185,
        0.99959653615951538,
        0.99501276016235352
      ],
      "min": [
        -0.99954861402511597,
        -0.99941986799240112,
        -0.99986863136291504
      ],
      "type": "VEC3"
    },
    {
      "bufferView": 3,
      "componentType": 5126,
      "count": 756,
      "max": [
        0.99980670213699341,
        0.99889832735061646,
        0.99874967336654663,
        1
      ],
      "min": [
        -0.99964892864227295,
        -0.99903410673141479,
        -0.99717158079147339,
        1
      ],
      "type": "VEC4"
    },
    {
      "bufferView": 1,
      "componentType": 5126,
      "count": 756,
      "max": [
        0.31108200550079346,
        0.99988901615142822
      ],
      "min": [
        0.00011100000119768083,
        0.00011100000119768083
      ],
      "type": "VEC2"
    },
    {
      "bufferView": 0,
      "componentType": 5125,
      "count": 3840,
      "max": [
        755
      ],
      "min": [
        0
      ],
      "type": "SCALAR"
    },
    {
      "bufferView": 2,
      "byteOffset": 18144,
      "componentType": 5126,
      "count": 692,
      "max": [
        19.612026214599609,
        7.2687849998474121,
        19.999988555908203
      ],
      "min": [
        -69.846466064453125,
        -7.4462261199951172,
        -26.064155578613281
      ],
      "type": "VEC3"
    },
    {
      "bufferView": 2,
      "byteOffset": 26448,
      "componentType": 5126,
      "count": 692,
      "max": [
        0.9997977614402771,
        0.99995863437652588,
        1
      ],
      "min": [
        -0.99999964237213135,
        -0.99995863437652588,
        -0.99994248151779175
      ],
      "type": "VEC3"
    },
    {
      "bufferView": 3,
      "byteOffset": 12096,
      "componentType": 5126,
      "count": 692,
      "max": [
        0.9999769926071167,
        1,
        1,
        1
      ],
      "min": [
        -0.99961394071578979,
        -0.99998801946640015,
        -0.96031737327575684,
        -1
      ],
      "type": "VEC4"
    },
    {
      "bufferView": 1,
      "byteOffset": 6048,
      "componentType": 5126,
      "count": 692,
      "max": [
        0.99985897541046143,
        0.76311600208282471
      ],
      "min": [
        0.00014099999680183828,
        0.00014099999680183828
      ],
      "type": "VEC2"
    },
    {
      "bufferView": 0,
      "byteOffset": 15360,
      "componentType": 5125,
      "count": 3132,
      "max": [
        691
      ],
      "min": [
        0
      ],
      "type": "SCALAR"
    }
  ],
  "asset": {
    "extras": {
      "author": "wolfgar74 (https://sketchfab.com/wolfgar74)",
      "license": "CC-BY-4.0 (http://creativecommons.org/licenses/by/4.0/)",
      "source": "https://sketchfab.com/3d-models/stone-hammer-axe-free-a0e76cba79784776b4346e6ae1732472",
      "title": "Stone hammer Axe (Free)"
    },
    "generator": "Sketchfab-9.94.0",
    "version": "2.0"
  },
  "bufferViews": [
    {
      "buffer": 0,
      "byteLength": 27888,
      "byteOffset": 0,
      "name": "floatBufferViews",
      "target": 34963
    },
    {
      "buffer": 0,
      "byteLength": 11584,
      "byteOffset": 27888,
      "byteStride": 8,
      "name": "floatBufferViews",
      "target": 34962
    },
    {
      "buffer": 0,
      "byteLength": 34752,
      "byteOffset": 39472,
      "byteStride": 12,
      "name": "floatBufferViews",
      "target": 34962
    },
    {
      "buffer": 0,
      "byteLength": 23168,
      "byteOffset": 74224,
      "byteStride": 16,
      "name": "floatBufferViews",
      "target": 34962
    }
  ],
  "buffers": [
    {
      "byteLength": 97392,
      "uri": "scene.bin"
    }
  ],
  "images": [
    {
      "uri": "textures/Rope_baseColor.png"
    },
    {
      "uri": "textures/Rope_metallicRoughness.png"
    },
    {
      "uri": "textures/Rope_normal.png"
    },
    {
      "uri": "textures/StoneHammerAxe_baseColor.png"
    },
    {
      "uri": "textures/StoneHammerAxe_metallicRoughness.png"
    },
    {
      "uri": "textures/StoneHammerAxe_normal.png"
    }
  ],
  "materials": [
    {
      "doubleSided": true,
      "emissiveFactor": [
        0,
        0,
        0
      ],
      "name": "Rope",
      "normalTexture": {
        "index": 2,
        "scale": 1,
        "texCoord": 0
      },
      "pbrMetallicRoughness": {
        "baseColorFactor": [
          1,
          1,
          1,
          1
        ],
        "baseColorTexture": {
          "index": 0,
          "texCoord": 0
        },
        "metallicFactor": 0,
        "metallicRoughnessTexture": {
          "index": 1,
          "texCoord": 0
        },
        "roughnessFactor": 1
      }
    },
    {
      "doubleSided": true,
      "emissiveFactor": [
        0,
        0,
        0
      ],
      "name": "StoneHammerAxe",
      "normalTexture": {
        "index": 5,
        "scale": 1,
        "texCoord": 0
      },
      "pbrMetallicRoughness": {
        "baseColorFactor": [
          1,
          1,
          1,
          1
        ],
        "baseColorTexture": {
          "index": 3,
          "texCoord": 0
        },
        "metallicFactor": 0,
        "metallicRoughnessTexture": {
          "index": 4,
          "texCoord": 0
        },
        "roughnessFactor": 1
      }
    }
  ],
  "meshes": [
    {
      "primitives": [
        {
          "attributes": {
            "NORMAL": 1,
            "POSITION": 0,
            "TANGENT": 2,
            "TEXCOORD_0": 3
          },
          "indices": 4,
          "material": 0,
          "mode": 4
        }
      ]
    },
    {
      "primitives": [
        {
          "attributes": {
            "NORMAL": 6,
            "POSITION": 5,
            "TANGENT": 7,
            "TEXCOORD_0": 8
          },
          "indices": 9,
          "material": 1,
          "mode": 4
        }
      ]
    }
  ],
  "nodes": [
    {
      "children": [
        1
      ],
      "name": "RootNode (gltf orientation matrix)",
      "rotation": [
        -0.70710678118654746,
        -0,
        -0,
        0.70710678118654757
      ]
    },
    {
      "children": [
        2
      ],
      "name": "RootNode (model correction matrix)"
    },
    {
      "children": [
        3,
        4
      ],
      "name": "StoneTool.obj.cleaner.materialmerger.gles"
    },
    {
      "mesh": 0,
      "name": ""
    },
    {
      "mesh": 1,
      "name": ""
    }
  ],
  "samplers": [
    {
      "magFilter": 9729,
      "minFilter": 9987,
      "wrapS": 10497,
      "wrapT": 10497
    }
  ],
  "scene": 0,
  "scenes": [
    {
      "name": "OSG_Scene",
      "nodes": [
        0
      ]
    }
  ],
  "textures": [
    {
      "sampler": 0,
      "source": 0
    },
    {
      "sampler": 0,
      "source": 1
    },
    {
      "sampler": 0,
      "source": 2
    },
    {
      "sampler": 0,
      "source": 3
    },
    {
      "sampler": 0,
      "source": 4
    },
    {
      "sampler": 0,
      "source": 5
    }
  ]
}

