{
  "accessors": [
    {
      "bufferView": 2,
      "componentType": 5126,
      "count": 49647,
      "max": [
        5.891477108001709,
        5.4407010078430176,
        18.731258392333984
      ],
      "min": [
        -10.541021347045898,
        -5.177311897277832,
        11.047825813293457
      ],
      "type": "VEC3"
    },
    {
      "bufferView": 2,
      "byteOffset": 595764,
      "componentType": 5126,
      "count": 49647,
      "max": [
        0.99948585033416748,
        0.99980735778808594,
        0.99906176328659058
      ],
      "min": [
        -0.99957960844039917,
        -0.99993807077407837,
        -0.99990493059158325
      ],
      "type": "VEC3"
    },
    {
      "bufferView": 3,
      "componentType": 5126,
      "count": 49647,
      "max": [
        0.99936455488204956,
        0.99988150596618652,
        0.99987035989761353,
        1
      ],
      "min": [
        -0.99981093406677246,
        -0.99886828660964966,
        -0.99901193380355835,
        -1
      ],
      "type": "VEC4"
    },
    {
      "bufferView": 1,
      "componentType": 5126,
      "count": 49647,
      "max": [
        0.99868398904800415,
        0.99958902597427368
      ],
      "min": [
        0.0043109999969601631,
        0.0034399998839944601
      ],
      "type": "VEC2"
    },
    {
      "bufferView": 0,
      "componentType": 5125,
      "count": 245661,
      "max": [
        49646
      ],
      "min": [
        0
      ],
      "type": "SCALAR"
    }
  ],
  "asset": {
    "extras": {
      "author": "Matthew Schroyer (https://sketchfab.com/mschroyer)",
      "license": "CC-BY-4.0 (http://creativecommons.org/licenses/by/4.0/)",
      "source": "https://sketchfab.com/models/c8fee7a21dbc465d8fae98a0df4d190e",
      "title": "Coelophysis"
    },
    "generator": "Sketchfab-3.20.7",
    "version": "2.0"
  },
  "bufferViews": [
    {
      "buffer": 0,
      "byteLength": 982644,
      "byteOffset": 0,
      "name": "floatBufferViews",
      "target": 34963
    },
    {
      "buffer": 0,
      "byteLength": 397176,
      "byteOffset": 982644,
      "byteStride": 8,
      "name": "floatBufferViews",
      "target": 34962
    },
    {
      "buffer": 0,
      "byteLength": 1191528,
      "byteOffset": 1379820,
      "byteStride": 12,
      "name": "floatBufferViews",
      "target": 34962
    },
    {
      "buffer": 0,
      "byteLength": 794352,
      "byteOffset": 2571348,
      "byteStride": 16,
      "name": "floatBufferViews",
      "target": 34962
    }
  ],
  "buffers": [
    {
      "byteLength": 3365700,
      "uri": "scene.bin"
    }
  ],
  "extensionsUsed": [
    "KHR_materials_unlit"
  ],
  "images": [
    {
      "uri": "textures/material_0_baseColor.jpeg"
    }
  ],
  "materials": [
    {
      "doubleSided": true,
      "emissiveFactor": [
        0,
        0,
        0
      ],
      "extensions": {
        "KHR_materials_unlit": {}
      },
      "name": "material_0",
      "pbrMetallicRoughness": {
        "baseColorFactor": [
          1,
          1,
          1,
          1
        ],
        "baseColorTexture": {
          "index": 0,
          "texCoord": 0
        },
        "metallicFactor": 0,
        "roughnessFactor": 1
      }
    }
  ],
  "meshes": [
    {
      "primitives": [
        {
          "attributes": {
            "NORMAL": 1,
            "POSITION": 0,
            "TANGENT": 2,
            "TEXCOORD_0": 3
          },
          "indices": 4,
          "material": 0,
          "mode": 4
        }
      ]
    }
  ],
  "nodes": [
    {
      "children": [
        1
      ],
      "name": "RootNode (gltf orientation matrix)",
      "rotation": [
        -0.70710678118654746,
        -0,
        -0,
        0.70710678118654757
      ]
    },
    {
      "children": [
        2
      ],
      "matrix": [
        0.91779035329818726,
        0.043329998850822449,
        -0.39469397068023682,
        0,
        0.11162504553794861,
        -0.98209583759307861,
        0.1517484188079834,
        0,
        -0.38105204701423645,
        -0.1833309680223465,
        -0.90619486570358276,
        0,
        5.4678635597229004,
        3.091477632522583,
        27.444772720336914,
        1
      ],
      "name": "RootNode (model correction matrix)"
    },
    {
      "children": [
        3
      ],
      "name": "model.obj.cleaner"
    },
    {
      "mesh": 0,
      "name": ""
    }
  ],
  "samplers": [
    {
      "magFilter": 9729,
      "minFilter": 9987,
      "wrapS": 10497,
      "wrapT": 10497
    }
  ],
  "scene": 0,
  "scenes": [
    {
      "name": "OSG_Scene",
      "nodes": [
        0
      ]
    }
  ],
  "textures": [
    {
      "sampler": 0,
      "source": 0
    }
  ]
}

