{
  "accessors": [
    {
      "bufferView": 1,
      "componentType": 5126,
      "count": 65532,
      "max": [
        106.06303405761719,
        95.170028686523438,
        136.40122985839844
      ],
      "min": [
        50.432540893554688,
        1.991363525390625,
        101.84035491943359
      ],
      "type": "VEC3"
    },
    {
      "bufferView": 1,
      "byteOffset": 786384,
      "componentType": 5126,
      "count": 65532,
      "max": [
        0.99997341632843018,
        0.99991786479949951,
        0.99993813037872314
      ],
      "min": [
        -0.99997800588607788,
        -0.99982064962387085,
        -0.99988186359405518
      ],
      "type": "VEC3"
    },
    {
      "bufferView": 2,
      "componentType": 5126,
      "count": 65532,
      "max": [
        0,
        0,
        0,
        1
      ],
      "min": [
        0,
        0,
        0,
        1
      ],
      "type": "VEC4"
    },
    {
      "bufferView": 0,
      "componentType": 5125,
      "count": 384537,
      "max": [
        65531
      ],
      "min": [
        0
      ],
      "type": "SCALAR"
    },
    {
      "bufferView": 1,
      "byteOffset": 1572768,
      "componentType": 5126,
      "count": 34577,
      "max": [
        70.282264709472656,
        130.08627319335938,
        141.2857666015625
      ],
      "min": [
        44.941619873046875,
        75.128227233886719,
        101.85011291503906
      ],
      "type": "VEC3"
    },
    {
      "bufferView": 1,
      "byteOffset": 1987692,
      "componentType": 5126,
      "count": 34577,
      "max": [
        0.99998211860656738,
        0.99992662668228149,
        0.99996352195739746
      ],
      "min": [
        -0.99999678134918213,
        -0.99948149919509888,
        -0.99997520446777344
      ],
      "type": "VEC3"
    },
    {
      "bufferView": 2,
      "byteOffset": 1048512,
      "componentType": 5126,
      "count": 34577,
      "max": [
        0,
        0,
        0,
        1
      ],
      "min": [
        0,
        0,
        0,
        1
      ],
      "type": "VEC4"
    },
    {
      "bufferView": 0,
      "byteOffset": 1538148,
      "componentType": 5125,
      "count": 194385,
      "max": [
        34576
      ],
      "min": [
        0
      ],
      "type": "SCALAR"
    },
    {
      "bufferView": 1,
      "byteOffset": 2402616,
      "componentType": 5126,
      "count": 65532,
      "max": [
        135.89286804199219,
        103.14137268066406,
        141.07272338867188
      ],
      "min": [
        103.52713012695312,
        2.96435546875,
        99.553329467773438
      ],
      "type": "VEC3"
    },
    {
      "bufferView": 1,
      "byteOffset": 3189000,
      "componentType": 5126,
      "count": 65532,
      "max": [
        0.9999879002571106,
        0.99949300289154053,
        0.99999606609344482
      ],
      "min": [
        -0.99999815225601196,
        -0.99952512979507446,
        -0.99992692470550537
      ],
      "type": "VEC3"
    },
    {
      "bufferView": 2,
      "byteOffset": 1601744,
      "componentType": 5126,
      "count": 65532,
      "max": [
        0,
        0,
        0,
        1
      ],
      "min": [
        0,
        0,
        0,
        1
      ],
      "type": "VEC4"
    },
    {
      "bufferView": 0,
      "byteOffset": 2315688,
      "componentType": 5125,
      "count": 385638,
      "max": [
        65531
      ],
      "min": [
        0
      ],
      "type": "SCALAR"
    },
    {
      "bufferView": 1,
      "byteOffset": 3975384,
      "componentType": 5126,
      "count": 43040,
      "max": [
        146.16903686523438,
        139.81146240234375,
        140.55657958984375
      ],
      "min": [
        121.67284393310547,
        78.872154235839844,
        99.607345581054688
      ],
      "type": "VEC3"
    },
    {
      "bufferView": 1,
      "byteOffset": 4491864,
      "componentType": 5126,
      "count": 43040,
      "max": [
        0.9999803900718689,
        0.99997216463088989,
        0.99993383884429932
      ],
      "min": [
        -0.99999982118606567,
        -0.99929815530776978,
        -0.99997276067733765
      ],
      "type": "VEC3"
    },
    {
      "bufferView": 2,
      "byteOffset": 2650256,
      "componentType": 5126,
      "count": 43040,
      "max": [
        0,
        0,
        0,
        1
      ],
      "min": [
        0,
        0,
        0,
        1
      ],
      "type": "VEC4"
    },
    {
      "bufferView": 0,
      "byteOffset": 3858240,
      "componentType": 5125,
      "count": 247530,
      "max": [
        43039
      ],
      "min": [
        0
      ],
      "type": "SCALAR"
    },
    {
      "bufferView": 1,
      "byteOffset": 5008344,
      "componentType": 5126,
      "count": 65532,
      "max": [
        158.14599609375,
        180.66900634765625,
        50.562492370605469
      ],
      "min": [
        59.768398284912109,
        43.929107666015625,
        0.3708648681640625
      ],
      "type": "VEC3"
    },
    {
      "bufferView": 1,
      "byteOffset": 5794728,
      "componentType": 5126,
      "count": 65532,
      "max": [
        0.9999845027923584,
        0.9999995231628418,
        0.9999845027923584
      ],
      "min": [
        -0.99999052286148071,
        -0.9999539852142334,
        -1
      ],
      "type": "VEC3"
    },
    {
      "bufferView": 0,
      "byteOffset": 4848360,
      "componentType": 5125,
      "count": 374016,
      "max": [
        65531
      ],
      "min": [
        0
      ],
      "type": "SCALAR"
    },
    {
      "bufferView": 1,
      "byteOffset": 6581112,
      "componentType": 5126,
      "count": 65532,
      "max": [
        167.61300659179688,
        192.73397827148438,
        71.749000549316406
      ],
      "min": [
        51.908599853515625,
        27.398399353027344,
        28.772491455078125
      ],
      "type": "VEC3"
    },
    {
      "bufferView": 1,
      "byteOffset": 7367496,
      "componentType": 5126,
      "count": 65532,
      "max": [
        1,
        0.9999995231628418,
        1
      ],
      "min": [
        -0.99998486042022705,
        -1,
        -0.99999576807022095
      ],
      "type": "VEC3"
    },
    {
      "bufferView": 0,
      "byteOffset": 6344424,
      "componentType": 5125,
      "count": 339621,
      "max": [
        65531
      ],
      "min": [
        0
      ],
      "type": "SCALAR"
    },
    {
      "bufferView": 1,
      "byteOffset": 8153880,
      "componentType": 5126,
      "count": 65532,
      "max": [
        168.36203002929688,
        199.99497985839844,
        78.030502319335938
      ],
      "min": [
        49.82440185546875,
        16.686408996582031,
        47.863288879394531
      ],
      "type": "VEC3"
    },
    {
      "bufferView": 1,
      "byteOffset": 8940264,
      "componentType": 5126,
      "count": 65532,
      "max": [
        0.99999934434890747,
        0.99999994039535522,
        1
      ],
      "min": [
        -0.99999696016311646,
        -1,
        -1
      ],
      "type": "VEC3"
    },
    {
      "bufferView": 0,
      "byteOffset": 7702908,
      "componentType": 5125,
      "count": 324105,
      "max": [
        65531
      ],
      "min": [
        0
      ],
      "type": "SCALAR"
    },
    {
      "bufferView": 1,
      "byteOffset": 9726648,
      "componentType": 5126,
      "count": 65532,
      "max": [
        168.55899047851562,
        204.77000427246094,
        81.971900939941406
      ],
      "min": [
        49.832901000976562,
        16.914199829101562,
        56.088890075683594
      ],
      "type": "VEC3"
    },
    {
      "bufferView": 1,
      "byteOffset": 10513032,
      "componentType": 5126,
      "count": 65532,
      "max": [
        1,
        0.99999934434890747,
        0.99999994039535522
      ],
      "min": [
        -0.99999696016311646,
        -1,
        -1
      ],
      "type": "VEC3"
    },
    {
      "bufferView": 0,
      "byteOffset": 8999328,
      "componentType": 5125,
      "count": 306183,
      "max": [
        65531
      ],
      "min": [
        0
      ],
      "type": "SCALAR"
    },
    {
      "bufferView": 1,
      "byteOffset": 11299416,
      "componentType": 5126,
      "count": 65532,
      "max": [
        169.16900634765625,
        204.77001953125,
        90.31658935546875
      ],
      "min": [
        49.760700225830078,
        18.888999938964844,
        61.465400695800781
      ],
      "type": "VEC3"
    },
    {
      "bufferView": 1,
      "byteOffset": 12085800,
      "componentType": 5126,
      "count": 65532,
      "max": [
        1,
        0.99999397993087769,
        1
      ],
      "min": [
        -1,
        -1,
        -0.9999997615814209
      ],
      "type": "VEC3"
    },
    {
      "bufferView": 0,
      "byteOffset": 10224060,
      "componentType": 5125,
      "count": 297249,
      "max": [
        65531
      ],
      "min": [
        0
      ],
      "type": "SCALAR"
    },
    {
      "bufferView": 1,
      "byteOffset": 12872184,
      "componentType": 5126,
      "count": 65532,
      "max": [
        169.15200805664062,
        203.71600341796875,
        97.772697448730469
      ],
      "min": [
        50.507301330566406,
        5.7692794799804688,
        66.940399169921875
      ],
      "type": "VEC3"
    },
    {
      "bufferView": 1,
      "byteOffset": 13658568,
      "componentType": 5126,
      "count": 65532,
      "max": [
        0.9999966025352478,
        0.99999523162841797,
        0.99999994039535522
      ],
      "min": [
        -1,
        -1,
        -1
      ],
      "type": "VEC3"
    },
    {
      "bufferView": 0,
      "byteOffset": 11413056,
      "componentType": 5125,
      "count": 298101,
      "max": [
        65531
      ],
      "min": [
        0
      ],
      "type": "SCALAR"
    },
    {
      "bufferView": 1,
      "byteOffset": 14444952,
      "componentType": 5126,
      "count": 65532,
      "max": [
        168.40299987792969,
        202.1519775390625,
        103.59400939941406
      ],
      "min": [
        48.017097473144531,
        13.28460693359375,
        71.478507995605469
      ],
      "type": "VEC3"
    },
    {
      "bufferView": 1,
      "byteOffset": 15231336,
      "componentType": 5126,
      "count": 65532,
      "max": [
        1,
        1,
        1
      ],
      "min": [
        -1,
        -1,
        -1
      ],
      "type": "VEC3"
    },
    {
      "bufferView": 0,
      "byteOffset": 12605460,
      "componentType": 5125,
      "count": 297117,
      "max": [
        65531
      ],
      "min": [
        0
      ],
      "type": "SCALAR"
    },
    {
      "bufferView": 1,
      "byteOffset": 16017720,
      "componentType": 5126,
      "count": 65532,
      "max": [
        166.02299499511719,
        199.52297973632812,
        103.74600219726562
      ],
      "min": [
        48.416999816894531,
        9.1828117370605469,
        76.397293090820312
      ],
      "type": "VEC3"
    },
    {
      "bufferView": 1,
      "byteOffset": 16804104,
      "componentType": 5126,
      "count": 65532,
      "max": [
        1,
        1,
        1
      ],
      "min": [
        -1,
        -1,
        -1
      ],
      "type": "VEC3"
    },
    {
      "bufferView": 0,
      "byteOffset": 13793928,
      "componentType": 5125,
      "count": 292092,
      "max": [
        65531
      ],
      "min": [
        0
      ],
      "type": "SCALAR"
    },
    {
      "bufferView": 1,
      "byteOffset": 17590488,
      "componentType": 5126,
      "count": 65532,
      "max": [
        162.21299743652344,
        197.68299865722656,
        104.0889892578125
      ],
      "min": [
        47.777091979980469,
        4.2608566284179688,
        81.052894592285156
      ],
      "type": "VEC3"
    },
    {
      "bufferView": 1,
      "byteOffset": 18376872,
      "componentType": 5126,
      "count": 65532,
      "max": [
        1,
        1,
        1
      ],
      "min": [
        -1,
        -1,
        -1
      ],
      "type": "VEC3"
    },
    {
      "bufferView": 0,
      "byteOffset": 14962296,
      "componentType": 5125,
      "count": 284880,
      "max": [
        65531
      ],
      "min": [
        0
      ],
      "type": "SCALAR"
    },
    {
      "bufferView": 1,
      "byteOffset": 19163256,
      "componentType": 5126,
      "count": 65532,
      "max": [
        160.88699340820312,
        191.50999450683594,
        112.36799621582031
      ],
      "min": [
        42.389595031738281,
        4.32000732421875,
        86.27490234375
      ],
      "type": "VEC3"
    },
    {
      "bufferView": 1,
      "byteOffset": 19949640,
      "componentType": 5126,
      "count": 65532,
      "max": [
        1,
        0.99998849630355835,
        1
      ],
      "min": [
        -1,
        -1,
        -0.99999266862869263
      ],
      "type": "VEC3"
    },
    {
      "bufferView": 0,
      "byteOffset": 16101816,
      "componentType": 5125,
      "count": 295587,
      "max": [
        65531
      ],
      "min": [
        0
      ],
      "type": "SCALAR"
    },
    {
      "bufferView": 1,
      "byteOffset": 20736024,
      "componentType": 5126,
      "count": 65532,
      "max": [
        159.031005859375,
        186.40199279785156,
        118.11499786376953
      ],
      "min": [
        39.514701843261719,
        4.2608566284179688,
        91.811904907226562
      ],
      "type": "VEC3"
    },
    {
      "bufferView": 1,
      "byteOffset": 21522408,
      "componentType": 5126,
      "count": 65532,
      "max": [
        0.99999761581420898,
        0.99999266862869263,
        1
      ],
      "min": [
        -1,
        -0.99999600648880005,
        -0.9999658465385437
      ],
      "type": "VEC3"
    },
    {
      "bufferView": 0,
      "byteOffset": 17284164,
      "componentType": 5125,
      "count": 303237,
      "max": [
        65531
      ],
      "min": [
        0
      ],
      "type": "SCALAR"
    },
    {
      "bufferView": 1,
      "byteOffset": 22308792,
      "componentType": 5126,
      "count": 32240,
      "max": [
        159.031005859375,
        153.39500427246094,
        128.125
      ],
      "min": [
        38.008590698242188,
        34.631301879882812,
        101.677001953125
      ],
      "type": "VEC3"
    },
    {
      "bufferView": 1,
      "byteOffset": 22695672,
      "componentType": 5126,
      "count": 32240,
      "max": [
        1,
        0.99999666213989258,
        0.99999994039535522
      ],
      "min": [
        -0.99999707937240601,
        -0.99999600648880005,
        -0.99995273351669312
      ],
      "type": "VEC3"
    },
    {
      "bufferView": 0,
      "byteOffset": 18497112,
      "componentType": 5125,
      "count": 155979,
      "max": [
        32239
      ],
      "min": [
        0
      ],
      "type": "SCALAR"
    }
  ],
  "asset": {
    "extras": {
      "author": "WitmerLab at Ohio University (https://sketchfab.com/witmerlab)",
      "license": "CC-BY-NC-4.0 (http://creativecommons.org/licenses/by-nc/4.0/)",
      "source": "https://sketchfab.com/models/f7fc7cccf9624aeb803788810d6261d5",
      "title": "Stegoceras - pachycephalosaur dinosaur skull"
    },
    "generator": "Sketchfab-3.18.7",
    "version": "2.0"
  },
  "bufferViews": [
    {
      "buffer": 0,
      "byteLength": 19121028,
      "byteOffset": 0,
      "name": "floatBufferViews",
      "target": 34963
    },
    {
      "buffer": 0,
      "byteLength": 23082552,
      "byteOffset": 19121028,
      "byteStride": 12,
      "name": "floatBufferViews",
      "target": 34962
    },
    {
      "buffer": 0,
      "byteLength": 3338896,
      "byteOffset": 42203580,
      "byteStride": 16,
      "name": "floatBufferViews",
      "target": 34962
    }
  ],
  "buffers": [
    {
      "byteLength": 45542476,
      "uri": "scene.bin"
    }
  ],
  "materials": [
    {
      "doubleSided": true,
      "emissiveFactor": [
        0,
        0,
        0
      ],
      "name": "pasted__lambert5",
      "pbrMetallicRoughness": {
        "baseColorFactor": [
          0.92200000000000004,
          0.86789099999999997,
          0.70256399999999997,
          1
        ],
        "metallicFactor": 0,
        "roughnessFactor": 0.51000000000000001
      }
    }
  ],
  "meshes": [
    {
      "name": "Stegoceras_skull_UALVP_2:Left_Mandible__8_pasted__lambert5_0",
      "primitives": [
        {
          "attributes": {
            "NORMAL": 1,
            "POSITION": 0,
            "TANGENT": 2
          },
          "indices": 3,
          "material": 0,
          "mode": 4
        }
      ]
    },
    {
      "name": "Stegoceras_skull_UALVP_2:Left_Mandible__8_pasted__lambert5_0",
      "primitives": [
        {
          "attributes": {
            "NORMAL": 5,
            "POSITION": 4,
            "TANGENT": 6
          },
          "indices": 7,
          "material": 0,
          "mode": 4
        }
      ]
    },
    {
      "name": "Stegoceras_skull_UALVP_2:Right_Mandible__7_pasted__lambert5_0",
      "primitives": [
        {
          "attributes": {
            "NORMAL": 9,
            "POSITION": 8,
            "TANGENT": 10
          },
          "indices": 11,
          "material": 0,
          "mode": 4
        }
      ]
    },
    {
      "name": "Stegoceras_skull_UALVP_2:Right_Mandible__7_pasted__lambert5_0",
      "primitives": [
        {
          "attributes": {
            "NORMAL": 13,
            "POSITION": 12,
            "TANGENT": 14
          },
          "indices": 15,
          "material": 0,
          "mode": 4
        }
      ]
    },
    {
      "name": "Mesh_pasted__lambert5_0",
      "primitives": [
        {
          "attributes": {
            "NORMAL": 17,
            "POSITION": 16
          },
          "indices": 18,
          "material": 0,
          "mode": 4
        }
      ]
    },
    {
      "name": "Mesh_pasted__lambert5_0",
      "primitives": [
        {
          "attributes": {
            "NORMAL": 20,
            "POSITION": 19
          },
          "indices": 21,
          "material": 0,
          "mode": 4
        }
      ]
    },
    {
      "name": "Mesh_pasted__lambert5_0",
      "primitives": [
        {
          "attributes": {
            "NORMAL": 23,
            "POSITION": 22
          },
          "indices": 24,
          "material": 0,
          "mode": 4
        }
      ]
    },
    {
      "name": "Mesh_pasted__lambert5_0",
      "primitives": [
        {
          "attributes": {
            "NORMAL": 26,
            "POSITION": 25
          },
          "indices": 27,
          "material": 0,
          "mode": 4
        }
      ]
    },
    {
      "name": "Mesh_pasted__lambert5_0",
      "primitives": [
        {
          "attributes": {
            "NORMAL": 29,
            "POSITION": 28
          },
          "indices": 30,
          "material": 0,
          "mode": 4
        }
      ]
    },
    {
      "name": "Mesh_pasted__lambert5_0",
      "primitives": [
        {
          "attributes": {
            "NORMAL": 32,
            "POSITION": 31
          },
          "indices": 33,
          "material": 0,
          "mode": 4
        }
      ]
    },
    {
      "name": "Mesh_pasted__lambert5_0",
      "primitives": [
        {
          "attributes": {
            "NORMAL": 35,
            "POSITION": 34
          },
          "indices": 36,
          "material": 0,
          "mode": 4
        }
      ]
    },
    {
      "name": "Mesh_pasted__lambert5_0",
      "primitives": [
        {
          "attributes": {
            "NORMAL": 38,
            "POSITION": 37
          },
          "indices": 39,
          "material": 0,
          "mode": 4
        }
      ]
    },
    {
      "name": "Mesh_pasted__lambert5_0",
      "primitives": [
        {
          "attributes": {
            "NORMAL": 41,
            "POSITION": 40
          },
          "indices": 42,
          "material": 0,
          "mode": 4
        }
      ]
    },
    {
      "name": "Mesh_pasted__lambert5_0",
      "primitives": [
        {
          "attributes": {
            "NORMAL": 44,
            "POSITION": 43
          },
          "indices": 45,
          "material": 0,
          "mode": 4
        }
      ]
    },
    {
      "name": "Mesh_pasted__lambert5_0",
      "primitives": [
        {
          "attributes": {
            "NORMAL": 47,
            "POSITION": 46
          },
          "indices": 48,
          "material": 0,
          "mode": 4
        }
      ]
    },
    {
      "name": "Mesh_pasted__lambert5_0",
      "primitives": [
        {
          "attributes": {
            "NORMAL": 50,
            "POSITION": 49
          },
          "indices": 51,
          "material": 0,
          "mode": 4
        }
      ]
    }
  ],
  "nodes": [
    {
      "children": [
        1
      ],
      "name": "RootNode (gltf orientation matrix)",
      "rotation": [
        -0.70710678118654746,
        -0,
        -0,
        0.70710678118654757
      ]
    },
    {
      "children": [
        2
      ],
      "name": "RootNode (model correction matrix)"
    },
    {
      "children": [
        3
      ],
      "matrix": [
        1,
        0,
        0,
        0,
        0,
        0,
        1,
        0,
        0,
        -1,
        0,
        0,
        0,
        0,
        0,
        1
      ],
      "name": "8f483a9da81e41a9b0d51ed3f9fe3f4d.fbx"
    },
    {
      "children": [
        4
      ],
      "name": "RootNode"
    },
    {
      "children": [
        5,
        8,
        11
      ],
      "matrix": [
        -0.99906056022838574,
        1.2836953722228372e-16,
        -0.043335862702199593,
        0,
        0.041711672646167597,
        0.27120759229569213,
        -0.96161664827842519,
        0,
        0.011753014983520115,
        -0.96252087867285963,
        -0.27095280909712582,
        0,
        97.16619873046875,
        137.23745727539062,
        115.2957763671875,
        1
      ],
      "name": "group1"
    },
    {
      "children": [
        6,
        7
      ],
      "matrix": [
        1,
        0,
        -3.4694469519536134e-18,
        0,
        0,
        1,
        0,
        0,
        3.4694469519536134e-18,
        0,
        1,
        0,
        0,
        0,
        0,
        1
      ],
      "name": "Stegoceras_skull_UALVP_2:Left_Mandible__8"
    },
    {
      "mesh": 0,
      "name": "Stegoceras_skull_UALVP_2:Left_Mandible__8_pasted__lambert5_0"
    },
    {
      "mesh": 1,
      "name": "Stegoceras_skull_UALVP_2:Left_Mandible__8_pasted__lambert5_0"
    },
    {
      "children": [
        9,
        10
      ],
      "matrix": [
        1,
        0,
        -3.4694469519536134e-18,
        0,
        0,
        1,
        0,
        0,
        3.4694469519536134e-18,
        0,
        1,
        0,
        0,
        0,
        0,
        1
      ],
      "name": "Stegoceras_skull_UALVP_2:Right_Mandible__7"
    },
    {
      "mesh": 2,
      "name": "Stegoceras_skull_UALVP_2:Right_Mandible__7_pasted__lambert5_0"
    },
    {
      "mesh": 3,
      "name": "Stegoceras_skull_UALVP_2:Right_Mandible__7_pasted__lambert5_0"
    },
    {
      "children": [
        12,
        13,
        14,
        15,
        16,
        17,
        18,
        19,
        20,
        21,
        22,
        23
      ],
      "matrix": [
        1,
        0,
        -3.4694469519536123e-18,
        0,
        -1.9259299443872339e-34,
        1,
        -5.5511151231257802e-17,
        0,
        3.4694469519536123e-18,
        5.5511151231257802e-17,
        1,
        0,
        0,
        0,
        0,
        1
      ],
      "name": "Mesh"
    },
    {
      "mesh": 4,
      "name": "Mesh_pasted__lambert5_0"
    },
    {
      "mesh": 5,
      "name": "Mesh_pasted__lambert5_0"
    },
    {
      "mesh": 6,
      "name": "Mesh_pasted__lambert5_0"
    },
    {
      "mesh": 7,
      "name": "Mesh_pasted__lambert5_0"
    },
    {
      "mesh": 8,
      "name": "Mesh_pasted__lambert5_0"
    },
    {
      "mesh": 9,
      "name": "Mesh_pasted__lambert5_0"
    },
    {
      "mesh": 10,
      "name": "Mesh_pasted__lambert5_0"
    },
    {
      "mesh": 11,
      "name": "Mesh_pasted__lambert5_0"
    },
    {
      "mesh": 12,
      "name": "Mesh_pasted__lambert5_0"
    },
    {
      "mesh": 13,
      "name": "Mesh_pasted__lambert5_0"
    },
    {
      "mesh": 14,
      "name": "Mesh_pasted__lambert5_0"
    },
    {
      "mesh": 15,
      "name": "Mesh_pasted__lambert5_0"
    }
  ],
  "scene": 0,
  "scenes": [
    {
      "name": "OSG_Scene",
      "nodes": [
        0
      ]
    }
  ]
}

